<svg  version="1.1" xmlns="http://www.w3.org/2000/svg">
    <symbol id="rank-0" viewBox="0 0 1024 1024">
       <path d="M288 896 160 896c-17.664 0-32-14.304-32-32L128 320c0-17.664 14.336-32 32-32l128 0c17.664 0 32 14.336 32 32l0 544C320 881.696 305.664 896 288 896zM192 832l64 0L256 352 192 352 192 832z" p-id="5611"></path>
       <path d="M576 896l-128 0c-17.664 0-32-14.304-32-32L416 512c0-17.664 14.336-32 32-32l128 0c17.696 0 32 14.336 32 32l0 352C608 881.696 593.696 896 576 896zM480 832l64 0 0-288-64 0L480 832z" p-id="5612"></path>
       <path d="M864 896l-128 0c-17.696 0-32-14.304-32-32L704 160c0-17.664 14.304-32 32-32l128 0c17.696 0 32 14.336 32 32l0 704C896 881.696 881.696 896 864 896zM768 832l64 0L832 192l-64 0L768 832z" p-id="5613"></path>
    </symbol>

    <symbol id="rank-1" viewBox="0 0 1024 1024">
       <path d="M288 288 160 288c-17.664 0-32 14.336-32 32l0 544c0 17.696 14.336 32 32 32l128 0c17.664 0 32-14.304 32-32L320 320C320 302.336 305.664 288 288 288z" p-id="5847" fill="#767676"></path>
       <path d="M576 896l-128 0c-17.664 0-32-14.304-32-32L416 512c0-17.664 14.336-32 32-32l128 0c17.696 0 32 14.336 32 32l0 352C608 881.696 593.696 896 576 896zM480 832l64 0 0-288-64 0L480 832z" p-id="5612" ></path>
       <path d="M864 896l-128 0c-17.696 0-32-14.304-32-32L704 160c0-17.664 14.304-32 32-32l128 0c17.696 0 32 14.336 32 32l0 704C896 881.696 881.696 896 864 896zM768 832l64 0L832 192l-64 0L768 832z" p-id="5613" ></path>
    </symbol>

    <symbol id="rank-2" viewBox="0 0 1024 1024">
       <path d="M288 288 160 288c-17.664 0-32 14.336-32 32l0 544c0 17.696 14.336 32 32 32l128 0c17.664 0 32-14.304 32-32L320 320C320 302.336 305.664 288 288 288z" p-id="5847" fill="#767676"></path>
       <path d="M576 480l-128 0c-17.664 0-32 14.336-32 32l0 352c0 17.696 14.336 32 32 32l128 0c17.696 0 32-14.304 32-32L608 512C608 494.336 593.696 480 576 480z" p-id="5390"  fill="#767676"></path>
       <path d="M864 896l-128 0c-17.696 0-32-14.304-32-32L704 160c0-17.664 14.304-32 32-32l128 0c17.696 0 32 14.336 32 32l0 704C896 881.696 881.696 896 864 896zM768 832l64 0L832 192l-64 0L768 832z" p-id="5613" ></path>
    </symbol>

    <symbol id="rank-3" viewBox="0 0 1024 1024">
       <path d="M288 288 160 288c-17.664 0-32 14.336-32 32l0 544c0 17.696 14.336 32 32 32l128 0c17.664 0 32-14.304 32-32L320 320C320 302.336 305.664 288 288 288z" p-id="5847" fill="#767676"></path>
       <path d="M576 480l-128 0c-17.664 0-32 14.336-32 32l0 352c0 17.696 14.336 32 32 32l128 0c17.696 0 32-14.304 32-32L608 512C608 494.336 593.696 480 576 480z" p-id="5390" fill="#767676"></path>
       <path d="M864 128l-128 0c-17.696 0-32 14.336-32 32l0 704c0 17.696 14.304 32 32 32l128 0c17.696 0 32-14.304 32-32L896 160C896 142.336 881.696 128 864 128z" p-id="5391" fill="#767676"></path>
    </symbol>

    <symbol id="favor" viewBox="0 0 1024 1024">
      <path d="M767.104 959.936c-5.344 0-10.688-1.344-15.52-4.032l-241.312-133.856-241.824 133.024c-10.72 5.92-23.904 5.152-33.888-1.92-10.016-7.072-15.104-19.264-13.12-31.328l46.88-284.736-196.448-202.08c-8.256-8.512-11.168-20.928-7.456-32.192 3.68-11.296 13.312-19.616 25.024-21.632l155.072-26.592c17.632-2.944 33.984 8.736 36.96 26.144 2.976 17.408-8.704 33.952-26.144 36.96l-95.168 16.32 165.344 170.08c7.072 7.296 10.272 17.504 8.64 27.488l-38.816 235.68 199.616-109.824c9.632-5.312 21.344-5.312 30.944 0.064l199.168 110.464-38.016-235.776c-1.632-10.016 1.632-20.224 8.704-27.456l164.672-168.256-225.664-34.816c-10.56-1.632-19.584-8.416-24.128-18.08l-99.2-212.384-100.064 211.84c-7.552 16-26.624 22.816-42.624 15.264-15.968-7.552-22.816-26.624-15.264-42.624l129.152-273.44c5.312-11.2 16.576-18.336 28.928-18.336 0 0 0.032 0 0.064 0 12.416 0.032 23.68 7.232 28.928 18.464l120.8 258.624 270.336 41.728c11.872 1.824 21.696 10.144 25.504 21.504 3.776 11.36 0.864 23.936-7.488 32.48l-196.928 201.216 45.92 284.864c1.952 12.096-3.2 24.256-13.216 31.296C780 958.016 773.568 959.936 767.104 959.936z" p-id="5730"></path>
    </symbol>

    <symbol id="hand-lizard-o" viewBox="0 0 1024 1024">
      <path d="M913.700895 880.509958l-184.860265 0c-25.452695 0-46.160319-20.706601-46.160319-46.159296l0-94.837972c0-11.253298-6.747681-22.13002-17.204847-27.760251l-152.71924-76.118632-0.300852-0.166799c-1.717108-0.954745-3.90596-1.437745-6.506181-1.437745L235.877195 634.029264c-25.452695 0-46.159296-20.706601-46.159296-46.159296l0-15.405875c0-50.935066 41.439808-92.373851 92.374874-92.373851L495.355925 480.090243c13.044084 0 25.071002-8.749268 29.246091-21.276582l30.809703-92.430132c0.99977-2.997264 1.619894-6.671956 1.619894-9.588379 0-17.019629-13.846356-30.865985-30.865985-30.865985L174.257789 325.929164c-17.546631 0-34.805714-6.152117-48.595788-17.322527-13.934361-11.287067-23.388686-26.957978-26.63666-44.140313-1.565658-7.53358-1.795902-15.041578-1.790786-21.958104l-9.981329-12.262278c-20.776186-25.524327-20.776186-48.933479-20.776186-73.716932 0-25.452695 20.706601-46.159296 46.159296-46.159296l461.670731 0c24.098861 0 47.224558 11.653411 61.863976 31.172977l0.096191 0.128937 275.846512 375.980093c30.79333 42.082444 47.744397 93.855598 47.744397 145.798621l0 170.900322C959.859167 859.803357 939.152567 880.509958 913.700895 880.509958zM527.025205 608.445586l152.691611 76.111468c20.762883 11.031241 33.661657 32.088836 33.661657 54.955636l0 94.837972c0 8.379854 7.080256 15.46011 15.461133 15.46011l184.860265 0c8.379854 0 15.459087-7.080256 15.459087-15.46011L929.158958 663.450341c0-45.473681-14.848173-90.809215-41.808198-127.654378L611.564623 159.897733c-8.874111-11.791557-22.795169-18.828834-37.256532-18.828834L112.63736 141.068899c-8.379854 0-15.46011 7.080256-15.46011 15.46011 0 14.240329 0.189312 24.530696 2.758834 33.737382 11.31879-11.464099 26.790156-18.277272 43.512003-18.277272l415.881872 0 0 46.104037-415.881872 0c-8.379854 0-15.46011 7.080256-15.46011 15.46011 0 1.559519-0.013303 3.13234-0.026606 4.713348-0.062422 7.222495-0.121773 14.043854 1.14201 20.046568l0.069585 0.347924c3.886517 20.846794 23.269983 36.567847 45.086871 36.567847l351.908862 0c33.94716 0 61.565171 27.618011 61.565171 61.565171 0 6.261611-1.133823 13.113669-3.194762 19.295462l-30.809703 92.431156c-8.426927 25.281803-31.884175 42.268686-58.370409 42.268686L282.092773 510.789429c-34.007535 0-61.675688 27.66713-61.675688 61.674665l0 15.405875c0 8.379854 7.080256 15.46011 15.46011 15.46011L505.947144 603.330078C513.685385 603.330078 520.775874 605.051279 527.025205 608.445586z" p-id="20575"></path>
    </symbol>

    <symbol id="issue" viewBox="0 0 1024 1024">
      <path d="M635.2 126c-37.1-8.2-73.9-12.2-109.8-12.2-218.1 0-403.9 144.9-430.3 350.1-6.8 53.3-1 106.6 16.1 158.8 13.3 40.7 19.9 82.4 10.7 125-4.7 22-14.3 41.8-29.7 59.3-6.5 7.4-12.8 15.1-18.4 23.1-19.3 27.5-10.4 50.7 24.6 60.7 29 9.3 144 19.4 267.3 19.4 107.1 0 220.4-7.6 289.1-29.8 164.1-53.4 270.3-155.8 299.4-314.9C990.3 368.2 848.7 173.3 635.2 126zM905.3 556.6c-24.9 136-111.8 226.5-265.8 276.5-54.6 17.7-151.8 27.4-273.7 27.4-113.2 0-205.4-8.3-241.2-14.7 1.7-2 3.4-4 5.2-6 20.5-23.5 34.2-50.9 40.8-81.6 10-46.3 6-95.6-12.1-151-15.1-46.1-19.8-92.2-14-137 22.8-177.7 183-306.6 380.9-306.6 32.9 0 66.2 3.7 99 11C810.3 215.8 936.3 387.2 905.3 556.6z" p-id="1869"></path>
      <path d="M511.9 698.7c-20.8 0.1-37.3 16.1-37.8 36.7-0.5 22 15.5 38 38 38 20.8 0 36.6-16.1 36.6-37.4C548.8 715 532.6 698.6 511.9 698.7z" p-id="1870"></path>
      <path d="M511.9 263.2c-82.2 0-148.8 66.5-149.3 148.6 0 0.1-0.1 0.2-0.1 0.3 0 0.1 0 0.1 0 0.1 0 0.1 0 0.2 0 0.3l0.1 0c-0.1 14.4 10.4 24.9 25.3 24.9 13.9 0 24.4-10.7 24.4-24.9l0 0c0-54.9 44.7-99.6 99.6-99.6s99.6 44.7 99.6 99.6S566.8 512 511.9 512c-13.8 0-24.9 11.1-24.9 24.9l0 99.6c0 13.8 11.1 24.9 24.9 24.9s24.9-11.1 24.9-24.9l0-77.2c70.6-11.9 124.4-72.9 124.4-146.8C661.2 330 594.3 263.2 511.9 263.2z" p-id="1871"></path>
    </symbol>
</svg>